<svg height="480pt" viewBox="0 0 480 480.312" width="480pt" xmlns="http://www.w3.org/2000/svg" xmlns:xlink="http://www.w3.org/1999/xlink">
    <linearGradient id="lg1">
        <stop offset="0" stop-color="#4A00E0"/>
        <stop offset="1" stop-color="#8E2DE2"/>
    </linearGradient>
    <linearGradient id="linear0" gradientUnits="userSpaceOnUse" x1="-23.42" x2="438.66" xlink:href="#lg1" y1="464.296" y2="38.312"/>
    <linearGradient id="linear1" gradientUnits="userSpaceOnUse" x1="-8.404" x2="453.684" xlink:href="#lg1" y1="480.592" y2="54.608"/>
    <linearGradient id="linear2" gradientUnits="userSpaceOnUse" x1="37.684" x2="499.772" xlink:href="#lg1" y1="530.584" y2="104.6"/>
    <path d="m176.15625 232.3125c-26.511719 0-48 21.488281-48 48 0 26.507812 21.488281 48 48 48 26.507812 0 48-21.492188 48-48-.027344-26.5-21.5-47.972656-48-48zm0 80c-17.671875 0-32-14.328125-32-32s14.328125-32 32-32 32 14.328125 32 32-14.328125 32-32 32zm0 0" fill="url(#linear0)"/>
    <path d="m480.15625 240.3125c-.097656-59.386719-46.515625-108.382812-105.808594-111.6875l-168.589844-127.023438c-3.535156-2.652343-8.550781-1.9375-11.203124 1.597657l-46.054688 61.113281-68.679688-18.402344c-4.265624-1.136718-8.648437 1.394532-9.792968 5.65625l-31.289063 116.746094h-30.582031c-4.417969 0-8 3.582031-8 8v208c0 4.417969 3.582031 8 8 8h328v56c0 17.671875 14.328125 32 32 32s32-14.328125 32-32v-80c0-4.417969-3.582031-8-8-8v-10.65625c51.335938-11.316406 87.921875-56.777344 88-109.34375zm-16 0c0 53.019531-42.980469 96-96 96s-96-42.980469-96-96 42.980469-96 96-96c52.996094.058594 95.941406 43.003906 96 96zm-213.359375-72c-6.285156-8.324219-15.171875-14.308594-25.25-17-18.644531-4.949219-38.441406 1.75-50.253906 17h-95.136719l9.503906-35.542969c19.941406-2.949219 38.015625-13.375 50.550782-29.160156l164.9375 44.167969c-8.449219 5.785156-16.070313 12.695312-22.65625 20.535156zm-25.152344 0h-25.160156c6.601563-2.871094 13.984375-3.414062 20.9375-1.535156 1.441406.40625 2.851563.921875 4.222656 1.535156zm67.3125 154.734375c-.359375.304687-.730469.5625-1.089843.863281-9.070313 7.746094-16.257813 17.460938-21.007813 28.402344h-189.40625c-8.003906-18.523438-22.773437-33.292969-41.296875-41.296875v-61.414063c16.8125-7.28125 30.582031-20.160156 38.96875-36.449218.847656-1.648438 1.597656-3.257813 2.304688-4.839844h179.445312c-12.398438 41.230469.097656 85.914062 32.082031 114.734375zm-90.402343-303.855469 122.640624 92.433594-20.726562-5.546875-58.929688-44.46875c-2.707031-2.046875-6.410156-2.164063-9.238281-.289063-16.054687 10.730469-36.125 13.5625-54.519531 7.6875-2.859375-.878906-5.96875-.078124-8.050781 2.070313l-8.558594-2.292969zm60.800781 75.863282-39.296875-10.503907c5.636718-1.695312 11.066406-4.007812 16.195312-6.894531zm-179.945313-31.589844 256.378906 68.632812c-4.789062 1.21875-9.488281 2.765625-14.066406 4.621094l-186.613281-50.007812c-3.277344-.875-6.746094.40625-8.664063 3.199218-10.898437 15.945313-28.449218 26.066406-47.707031 27.515625-3.378906.261719-6.226562 2.632813-7.101562 5.910157l-12.015625 44.976562h-8.320313zm-67.253906 312.847656v-192h255.152344c-1.503906 2.597656-2.886719 5.273438-4.191406 8h-191.121094c-3.394532 0-6.417969 2.140625-7.542969 5.34375-1 2.800781-2.1875 5.53125-3.554687 8.175781-7.429688 14.40625-20.097657 25.421875-35.398438 30.777344-3.199219 1.125-5.34375 4.148437-5.34375 7.542969v72.320312c0 3.394532 2.144531 6.417969 5.34375 7.542969 18.242188 6.367187 32.585938 20.710937 38.953125 38.953125 1.125 3.199219 4.148437 5.34375 7.542969 5.34375h200.320312c3.398438 0 6.429688-2.148438 7.550782-5.359375 3.632812-10.414063 9.960937-19.675781 18.335937-26.847656 1.160156-.992188 2.34375-1.945313 3.5625-2.832031 11.648437 7.832031 24.675781 13.390624 38.390625 16.382812v10.65625c-4.417969 0-8 3.582031-8 8v8zm368 72c0 8.835938-7.164062 16-16 16s-16-7.164062-16-16v-72h32zm-8-88h-16v-8.410156c2.65625.195312 5.296875.410156 8 .410156s5.34375-.214844 8-.410156zm0 0" fill="url(#linear1)"/>
    <path d="m288.15625 240.3125c.046875 44.164062 35.835938 79.949219 80 80v-16c-35.347656 0-64-28.652344-64-64s28.652344-64 64-64v-16c-44.164062.046875-79.953125 35.835938-80 80zm0 0" fill="url(#linear2)"/>
</svg>